<svg xmlns="http://www.w3.org/2000/svg" width="34" height="34" viewBox="0 0 34 34">
  <g id="Grupo_9467" data-name="Grupo 9467" transform="translate(-853 -3761)">
    <g id="Grupo_6063" data-name="Grupo 6063" transform="translate(853 3761)">
      <g id="Grupo_6062" data-name="Grupo 6062" transform="translate(0 0)">
        <g id="Grupo_6061" data-name="Grupo 6061">
          <g id="Grupo_6058" data-name="Grupo 6058" transform="translate(8.073 4.272)">
            <g id="Grupo_6057" data-name="Grupo 6057">
              <path id="Caminho_7971" data-name="Caminho 7971" d="M146.523,64.7a1.281,1.281,0,0,0-1.812,0L129.338,80.034l-5.546-6.024a1.281,1.281,0,0,0-1.885,1.736l6.45,7a1.28,1.28,0,0,0,.915.413h.027a1.283,1.283,0,0,0,.9-.374L146.52,66.516A1.281,1.281,0,0,0,146.523,64.7Z" transform="translate(-121.568 -64.327)" fill="#d22688"/>
            </g>
          </g>
          <g id="Grupo_6060" data-name="Grupo 6060">
            <g id="Grupo_6059" data-name="Grupo 6059">
              <path id="Caminho_7972" data-name="Caminho 7972" d="M32.719,15.719A1.281,1.281,0,0,0,31.437,17,14.437,14.437,0,1,1,17,2.563,1.281,1.281,0,1,0,17,0,17,17,0,1,0,34,17,1.281,1.281,0,0,0,32.719,15.719Z" transform="translate(0 0)" fill="#d22688"/>
            </g>
          </g>
        </g>
      </g>
    </g>
  </g>
</svg>
