<svg id="Grupo_2640" data-name="Grupo 2640" xmlns="http://www.w3.org/2000/svg" width="30.254" height="30.255" viewBox="0 0 30.254 30.255">
  <path id="Caminho_6044" data-name="Caminho 6044" d="M1364.472,150.412h3.043a.473.473,0,0,0,.473-.473V143.09h1.581a.472.472,0,0,0,.47-.424l.267-2.587a.473.473,0,0,0-.47-.521h-1.847v-1.048c0-.216.068-.233.173-.233h1.636a.473.473,0,0,0,.473-.473v-2.512a.473.473,0,0,0-.471-.473l-2.256-.009a3.328,3.328,0,0,0-2.854,1.279,3.891,3.891,0,0,0-.689,2.266v1.2h-.974a.473.473,0,0,0-.473.473v2.587a.473.473,0,0,0,.473.473H1364v6.849A.473.473,0,0,0,1364.472,150.412Zm-.975-8.267V140.5h.975a.473.473,0,0,0,.473-.473v-1.674a3,3,0,0,1,.505-1.705,2.433,2.433,0,0,1,2.09-.894l1.783.007v1.568h-1.163a1.088,1.088,0,0,0-1.119,1.178v1.52a.473.473,0,0,0,.473.473h1.8l-.169,1.641h-1.627a.473.473,0,0,0-.473.473v6.849h-2.1v-6.849a.473.473,0,0,0-.473-.473Z" transform="translate(-1351.301 -127.485)"/>
  <path id="Caminho_6045" data-name="Caminho 6045" d="M1328.906,100.513a15.129,15.129,0,1,0,4.431,10.7A15.028,15.028,0,0,0,1328.906,100.513Zm-.668,20.725a14.183,14.183,0,1,1,4.154-10.029A14.089,14.089,0,0,1,1328.237,121.238Z" transform="translate(-1303.082 -96.082)"/>
</svg>
