<svg id="Grupo_2639" data-name="Grupo 2639" xmlns="http://www.w3.org/2000/svg" width="30.108" height="30.109" viewBox="0 0 30.108 30.109">
  <g id="Grupo_2637" data-name="Grupo 2637">
    <path id="Caminho_6040" data-name="Caminho 6040" d="M1122.123,100.491a15.055,15.055,0,1,0,4.409,10.645,14.955,14.955,0,0,0-4.409-10.645Zm-.665,20.625a14.114,14.114,0,1,1,4.134-9.98,14.02,14.02,0,0,1-4.134,9.98Z" transform="translate(-1096.424 -96.082)"/>
  </g>
  <g id="Grupo_2638" data-name="Grupo 2638" transform="translate(7.507 7.507)">
    <path id="Caminho_6041" data-name="Caminho 6041" d="M1147.6,135.761h-7.878a3.627,3.627,0,0,0-3.623,3.623v7.879a3.627,3.627,0,0,0,3.623,3.623h7.878a3.627,3.627,0,0,0,3.623-3.623v-7.879A3.627,3.627,0,0,0,1147.6,135.761Zm2.669,11.5a2.672,2.672,0,0,1-2.669,2.669h-7.878a2.672,2.672,0,0,1-2.669-2.669v-7.878a2.672,2.672,0,0,1,2.669-2.669h7.878a2.672,2.672,0,0,1,2.669,2.669Z" transform="translate(-1136.103 -135.761)"/>
    <path id="Caminho_6042" data-name="Caminho 6042" d="M1195.926,150.371a.581.581,0,1,0,.581.581A.582.582,0,0,0,1195.926,150.371Z" transform="translate(-1184.137 -147.607)"/>
    <path id="Caminho_6043" data-name="Caminho 6043" d="M1160.187,156.138a3.707,3.707,0,1,0,3.707,3.707A3.711,3.711,0,0,0,1160.187,156.138Zm0,6.46a2.753,2.753,0,1,1,2.753-2.753A2.756,2.756,0,0,1,1160.187,162.6Z" transform="translate(-1152.625 -152.283)"/>
  </g>
</svg>
