<svg id="Grupo_2636" data-name="Grupo 2636" xmlns="http://www.w3.org/2000/svg" width="30.255" height="30.255" viewBox="0 0 30.255 30.255">
  <path id="Caminho_6036" data-name="Caminho 6036" d="M928.42,100.513a15.128,15.128,0,1,0,4.431,10.7A15.028,15.028,0,0,0,928.42,100.513Zm-.669,20.725a14.182,14.182,0,1,1,4.154-10.029A14.089,14.089,0,0,1,927.751,121.238Z" transform="translate(-902.596 -96.082)"/>
  <path id="Caminho_6037" data-name="Caminho 6037" d="M976.525,169.9h2.93a.473.473,0,0,0,.473-.473V164.37a4.733,4.733,0,0,0-1.09-3.319,3.633,3.633,0,0,0-2.757-1.12,3.393,3.393,0,0,0-2.167.688v-.008a.473.473,0,0,0-.473-.473h-2.929a.473.473,0,0,0-.472.494c.037.8,0,8.708,0,8.788a.473.473,0,0,0,.473.475h2.929a.473.473,0,0,0,.473-.473V164.5a1.587,1.587,0,0,1,.062-.537,1.154,1.154,0,0,1,1.065-.777c.277,0,1.012,0,1.012,1.521v4.715A.473.473,0,0,0,976.525,169.9Zm-1.484-7.654a2.062,2.062,0,0,0-1.94,1.365,2.33,2.33,0,0,0-.132.894v4.449h-1.981c.007-1.528.025-6.232.007-7.866h1.974v.775a.473.473,0,0,0,.869.257,2.429,2.429,0,0,1,2.243-1.239c1.843,0,2.9,1.273,2.9,3.493v4.58H977v-4.242a3.007,3.007,0,0,0-.426-1.707A1.76,1.76,0,0,0,975.04,162.242Z" transform="translate(-957.28 -147.852)"/>
  <path id="Caminho_6038" data-name="Caminho 6038" d="M949.313,140.546a2.123,2.123,0,1,0-2.149,2.005h.02a2,2,0,0,0,2.13-2Zm-2.129,1.06h-.02a1.042,1.042,0,0,1-1.145-1.05,1.062,1.062,0,0,1,1.183-1.05,1.049,1.049,0,0,1,1.165,1.055A1.063,1.063,0,0,1,947.184,141.606Z" transform="translate(-937.038 -130.524)"/>
  <path id="Caminho_6039" data-name="Caminho 6039" d="M946.459,161.024a.473.473,0,0,0-.473.473v8.812a.473.473,0,0,0,.473.473h2.931a.473.473,0,0,0,.473-.473V161.5a.473.473,0,0,0-.473-.473Zm2.458,8.812h-1.985V161.97h1.985Z" transform="translate(-937.777 -148.738)"/>
</svg>
