<svg xmlns="http://www.w3.org/2000/svg" width="29.468" height="30.109" viewBox="0 0 29.468 30.109">
  <g id="Grupo_2635" data-name="Grupo 2635" transform="translate(0 0)">
    <path id="Caminho_6033" data-name="Caminho 6033" d="M722.939,103.878a14.513,14.513,0,0,0-20.837,0,15.287,15.287,0,0,0,0,21.291,14.514,14.514,0,0,0,20.837,0,15.288,15.288,0,0,0,0-21.291Zm-.651,20.626a13.607,13.607,0,0,1-19.534,0,14.332,14.332,0,0,1,0-19.96,13.605,13.605,0,0,1,19.534,0,14.333,14.333,0,0,1,0,19.96Z" transform="translate(-697.787 -99.468)"/>
    <path id="Caminho_6034" data-name="Caminho 6034" d="M749.325,147.837a3.971,3.971,0,0,0-.718-1.856,2.472,2.472,0,0,0-1.719-.822l-.084-.009-.021,0c-2.115-.164-5.309-.166-5.341-.166h-.007c-.032,0-3.225,0-5.34.166l-.021,0-.084.009a2.473,2.473,0,0,0-1.719.822,3.97,3.97,0,0,0-.718,1.856v.008a26.213,26.213,0,0,0-.155,2.67v1.227a26.207,26.207,0,0,0,.155,2.671v.008a3.965,3.965,0,0,0,.719,1.855,2.639,2.639,0,0,0,1.748.807c.071.009.133.017.174.026l.043.006c1.22.125,5.036.163,5.2.165.032,0,3.228-.008,5.343-.17l.023,0,.087-.01a2.479,2.479,0,0,0,1.714-.823,3.967,3.967,0,0,0,.718-1.854v-.008a26.253,26.253,0,0,0,.155-2.671v-1.227a26.258,26.258,0,0,0-.155-2.671Zm-.765,3.905c0,1.232-.139,2.483-.148,2.561a3.139,3.139,0,0,1-.483,1.349l-.005.006a1.574,1.574,0,0,1-1.127.524l-.1.011c-2.08.159-5.231.166-5.258.166s-3.893-.039-5.094-.158c-.066-.012-.138-.021-.213-.031a1.75,1.75,0,0,1-1.182-.512l-.005-.006a3.063,3.063,0,0,1-.483-1.349c-.009-.08-.148-1.33-.148-2.561v-1.227c0-1.232.139-2.483.148-2.561a3.144,3.144,0,0,1,.483-1.35l0-.005a1.57,1.57,0,0,1,1.129-.523l.093-.01c2.079-.16,5.228-.162,5.259-.162h.007c.032,0,3.18,0,5.26.162l.093.01a1.568,1.568,0,0,1,1.129.523l0,.005a3.068,3.068,0,0,1,.484,1.351c.009.08.148,1.33.148,2.561Z" transform="translate(-726.66 -136.05)"/>
    <path id="Caminho_6035" data-name="Caminho 6035" d="M768.9,162.924l-4.74-2.844a.461.461,0,0,0-.7.395v5.688a.46.46,0,0,0,.7.395l4.74-2.844a.46.46,0,0,0,0-.79Zm-4.516,2.426v-4.062l3.385,2.031Z" transform="translate(-751.037 -148.238)"/>
  </g>
</svg>
